<svg width="1024" height="1024" viewBox="0 0 1024 1024" fill="none" xmlns="http://www.w3.org/2000/svg">
<g filter="url(#filter0_d_1_196)">
<circle cx="512" cy="511" r="337" stroke="#D1D5DA" stroke-width="12"/>
<circle cx="512" cy="512" r="166" stroke="#D1D5DA" stroke-width="12"/>
<g clip-path="url(#clip0_1_196)">
<circle cx="513.5" cy="513.5" r="390.5" fill="white"/>
<path d="M512.5 70C424.982 70 339.429 95.9522 266.66 144.575C193.892 193.197 137.175 262.306 103.684 343.163C70.1917 424.019 61.4288 512.991 78.5027 598.827C95.5767 684.664 137.721 763.51 199.605 825.395C261.49 887.279 340.336 929.423 426.173 946.497C512.009 963.571 600.981 954.808 681.838 921.317C762.694 887.825 831.803 831.109 880.425 758.34C929.048 685.571 955 600.018 955 512.5C955 395.142 908.38 282.59 825.395 199.605C742.41 116.62 629.858 70 512.5 70V70ZM716.204 705.825C716.271 710.299 715.133 714.709 712.907 718.591C710.682 722.472 707.452 725.683 703.557 727.885L670.298 747.193L637.039 766.502C633.194 768.798 628.799 770.01 624.32 770.01C619.841 770.01 615.446 768.798 611.6 766.502L578.39 747.193L545.131 727.885C541.22 725.697 537.975 722.491 535.74 718.607C533.504 714.723 532.363 710.306 532.436 705.825V633.419L377.148 543.683L407.463 588.913L369.28 610.924C365.435 613.22 361.04 614.433 356.561 614.433C352.082 614.433 347.687 613.22 343.841 610.924L310.631 591.616L277.372 572.308C273.505 570.144 270.287 566.983 268.055 563.154C265.822 559.326 264.656 554.969 264.677 550.538V473.787C264.623 469.286 265.793 464.856 268.064 460.97C270.334 457.084 273.618 453.889 277.565 451.727L310.824 432.418L344.034 413.11C347.887 410.834 352.279 409.633 356.754 409.633C361.228 409.633 365.621 410.834 369.473 413.11L402.732 432.418L432.032 449.313L532.533 391.388V319.175C532.485 314.693 533.642 310.281 535.884 306.4C538.126 302.519 541.37 299.312 545.276 297.115L578.535 277.807L611.745 258.498C615.591 256.202 619.986 254.99 624.465 254.99C628.943 254.99 633.339 256.202 637.184 258.498L670.394 277.807L703.653 297.115C707.561 299.307 710.803 302.514 713.038 306.397C715.273 310.28 716.417 314.695 716.348 319.175V395.926C716.413 400.398 715.267 404.805 713.033 408.68C710.798 412.555 707.557 415.753 703.653 417.937L670.394 437.246L637.184 456.554C633.332 458.83 628.939 460.031 624.465 460.031C619.99 460.031 615.598 458.83 611.745 456.554L578.535 437.246L576.507 436.087L611.697 384.244L549.138 420.206L448.638 478.131V546.193L549.138 604.118L578.39 587.223L611.6 567.915C615.476 565.67 619.888 564.516 624.366 564.575C628.845 564.635 633.224 565.906 637.039 568.253L670.298 587.561L703.557 606.87C707.455 609.068 710.688 612.278 712.914 616.16C715.14 620.043 716.277 624.455 716.204 628.93V705.825Z" fill="black"/>
</g>
</g>
<defs>
<filter id="filter0_d_1_196" x="-4" y="0" width="1032" height="1032" filterUnits="userSpaceOnUse" color-interpolation-filters="sRGB">
<feFlood flood-opacity="0" result="BackgroundImageFix"/>
<feColorMatrix in="SourceAlpha" type="matrix" values="0 0 0 0 0 0 0 0 0 0 0 0 0 0 0 0 0 0 127 0" result="hardAlpha"/>
<feOffset dy="4"/>
<feGaussianBlur stdDeviation="2"/>
<feComposite in2="hardAlpha" operator="out"/>
<feColorMatrix type="matrix" values="0 0 0 0 0 0 0 0 0 0 0 0 0 0 0 0 0 0 0.25 0"/>
<feBlend mode="normal" in2="BackgroundImageFix" result="effect1_dropShadow_1_196"/>
<feBlend mode="normal" in="SourceGraphic" in2="effect1_dropShadow_1_196" result="shape"/>
</filter>
<clipPath id="clip0_1_196">
<rect width="885" height="885" fill="white" transform="translate(70 70)"/>
</clipPath>
</defs>
</svg>
